<?xml version="1.0" encoding="utf-8" ?>
<svg baseProfile="tiny" height="1024" version="1.2" viewBox="0 0 6616 7136" width="949" xmlns="http://www.w3.org/2000/svg" xmlns:ev="http://www.w3.org/2001/xml-events" xmlns:xlink="http://www.w3.org/1999/xlink"><defs /><line stroke="#333" stroke-width="10" x1="2832" x2="2864" y1="352" y2="352" /><line stroke="#333" stroke-width="10" x1="2960" x2="3088" y1="352" y2="480" /><line stroke="#333" stroke-width="10" x1="3088" x2="3248" y1="480" y2="544" /><line stroke="#333" stroke-width="10" x1="3376" x2="3536" y1="544" y2="480" /><line stroke="#333" stroke-width="10" x1="3536" x2="3664" y1="480" y2="352" /><line stroke="#333" stroke-width="10" x1="3664" x2="3792" y1="352" y2="352" /><line stroke="#333" stroke-width="10" x1="3792" x2="3664" y1="160" y2="160" /><line stroke="#333" stroke-width="10" x1="3664" x2="3536" y1="160" y2="32" /><line stroke="#333" stroke-width="10" x1="3536" x2="3376" y1="32" y2="0" /><line stroke="#333" stroke-width="10" x1="3376" x2="3248" y1="0" y2="0" /><line stroke="#333" stroke-width="10" x1="3248" x2="3088" y1="0" y2="32" /><line stroke="#333" stroke-width="10" x1="3088" x2="2960" y1="32" y2="160" /><line stroke="#333" stroke-width="10" x1="2864" x2="2832" y1="160" y2="160" /><line stroke="#999" stroke-width="3" x1="3216" x2="3216" y1="224" y2="288" /><line stroke="#999" stroke-width="3" x1="3216" x2="3280" y1="288" y2="352" /><line stroke="#999" stroke-width="3" x1="3280" x2="3344" y1="352" y2="352" /><line stroke="#999" stroke-width="3" x1="3344" x2="3408" y1="352" y2="288" /><line stroke="#999" stroke-width="3" x1="3408" x2="3408" y1="288" y2="224" /><line stroke="#999" stroke-width="3" x1="3408" x2="3344" y1="224" y2="160" /><line stroke="#999" stroke-width="3" x1="3344" x2="3280" y1="160" y2="160" /><line stroke="#999" stroke-width="3" x1="3280" x2="3216" y1="160" y2="224" /><line stroke="#333" stroke-width="10" x1="3248" x2="3248" y1="544" y2="576" /><line stroke="#333" stroke-width="10" x1="3248" x2="3248" y1="576" y2="608" /><line stroke="#333" stroke-width="10" x1="3248" x2="3248" y1="608" y2="640" /><line stroke="#333" stroke-width="10" x1="3248" x2="3248" y1="640" y2="672" /><line stroke="#333" stroke-width="10" x1="3248" x2="3248" y1="672" y2="704" /><line stroke="#333" stroke-width="10" x1="3248" x2="3248" y1="704" y2="736" /><line stroke="#333" stroke-width="10" x1="3248" x2="3248" y1="736" y2="768" /><line stroke="#333" stroke-width="10" x1="3248" x2="3248" y1="768" y2="800" /><line stroke="#333" stroke-width="10" x1="3248" x2="3248" y1="800" y2="832" /><line stroke="#333" stroke-width="10" x1="3248" x2="3248" y1="832" y2="864" /><line stroke="#333" stroke-width="10" x1="3248" x2="3248" y1="864" y2="896" /><line stroke="#333" stroke-width="10" x1="3248" x2="3248" y1="896" y2="928" /><line stroke="#333" stroke-width="10" x1="3376" x2="3376" y1="928" y2="896" /><line stroke="#999" stroke-width="3" x1="3376" x2="3376" y1="896" y2="864" /><line stroke="#333" stroke-width="10" x1="3376" x2="3376" y1="832" y2="800" /><line stroke="#333" stroke-width="10" x1="3376" x2="3376" y1="800" y2="768" /><line stroke="#333" stroke-width="10" x1="3376" x2="3376" y1="768" y2="736" /><line stroke="#333" stroke-width="10" x1="3376" x2="3376" y1="736" y2="704" /><line stroke="#333" stroke-width="10" x1="3376" x2="3376" y1="704" y2="672" /><line stroke="#333" stroke-width="10" x1="3376" x2="3376" y1="672" y2="640" /><line stroke="#333" stroke-width="10" x1="3376" x2="3376" y1="640" y2="608" /><line stroke="#333" stroke-width="10" x1="3376" x2="3376" y1="608" y2="576" /><line stroke="#333" stroke-width="10" x1="3376" x2="3376" y1="576" y2="544" /><line stroke="#333" stroke-width="10" x1="3248" x2="3216" y1="928" y2="928" /><line stroke="#333" stroke-width="10" x1="3408" x2="3376" y1="928" y2="928" /><line stroke="#999" stroke-width="3" x1="2864" x2="2864" y1="160" y2="352" /><line stroke="#999" stroke-width="3" x1="3664" x2="3664" y1="352" y2="160" /><line stroke="#333" stroke-width="10" x1="3792" x2="3856" y1="352" y2="352" /><line stroke="#333" stroke-width="10" x1="3856" x2="3856" y1="352" y2="160" /><line stroke="#333" stroke-width="10" x1="3856" x2="3792" y1="160" y2="160" /><line stroke="#999" stroke-width="3" x1="3792" x2="3792" y1="352" y2="160" /><line stroke="#333" stroke-width="10" x1="2832" x2="2672" y1="160" y2="160" /><line stroke="#333" stroke-width="10" x1="2672" x2="2672" y1="160" y2="352" /><line stroke="#333" stroke-width="10" x1="2672" x2="2832" y1="352" y2="352" /><line stroke="#333" stroke-width="10" x1="3536" x2="3536" y1="1312" y2="1248" /><line stroke="#333" stroke-width="10" x1="3536" x2="3536" y1="1440" y2="1408" /><line stroke="#333" stroke-width="10" x1="3088" x2="3088" y1="1408" y2="1440" /><line stroke="#333" stroke-width="10" x1="3088" x2="3088" y1="1248" y2="1312" /><line stroke="#999" stroke-width="3" x1="3376" x2="3248" y1="544" y2="544" /><line stroke="#999" stroke-width="3" x1="3376" x2="3248" y1="576" y2="576" /><line stroke="#999" stroke-width="3" x1="3376" x2="3248" y1="608" y2="608" /><line stroke="#999" stroke-width="3" x1="3376" x2="3248" y1="640" y2="640" /><line stroke="#999" stroke-width="3" x1="3376" x2="3248" y1="672" y2="672" /><line stroke="#999" stroke-width="3" x1="3376" x2="3248" y1="704" y2="704" /><line stroke="#999" stroke-width="3" x1="3376" x2="3248" y1="736" y2="736" /><line stroke="#999" stroke-width="3" x1="3376" x2="3248" y1="768" y2="768" /><line stroke="#999" stroke-width="3" x1="3376" x2="3248" y1="800" y2="800" /><line stroke="#999" stroke-width="3" x1="3376" x2="3248" y1="832" y2="832" /><line stroke="#999" stroke-width="3" x1="3376" x2="3248" y1="864" y2="864" /><line stroke="#999" stroke-width="3" x1="3376" x2="3248" y1="896" y2="896" /><line stroke="#999" stroke-width="3" x1="3376" x2="3248" y1="928" y2="928" /><line stroke="#999" stroke-width="3" x1="3536" x2="3536" y1="1408" y2="1312" /><line stroke="#999" stroke-width="3" x1="3088" x2="3088" y1="1312" y2="1408" /><line stroke="#333" stroke-width="10" x1="3056" x2="3056" y1="1440" y2="1408" /><line stroke="#333" stroke-width="10" x1="3056" x2="3088" y1="1408" y2="1408" /><line stroke="#333" stroke-width="10" x1="3056" x2="3056" y1="1312" y2="1248" /><line stroke="#333" stroke-width="10" x1="3088" x2="3056" y1="1312" y2="1312" /><line stroke="#333" stroke-width="10" x1="3536" x2="3568" y1="1408" y2="1408" /><line stroke="#333" stroke-width="10" x1="3568" x2="3568" y1="1408" y2="1440" /><line stroke="#333" stroke-width="10" x1="3568" x2="3536" y1="1312" y2="1312" /><line stroke="#333" stroke-width="10" x1="3568" x2="3568" y1="1248" y2="1312" /><line stroke="#333" stroke-width="10" x1="3088" x2="3152" y1="1440" y2="1440" /><line stroke="#333" stroke-width="10" x1="3152" x2="3152" y1="1440" y2="1504" /><line stroke="#333" stroke-width="10" x1="3152" x2="3216" y1="1504" y2="1504" /><line stroke="#333" stroke-width="10" x1="3216" x2="3216" y1="1504" y2="1568" /><line stroke="#333" stroke-width="10" x1="3408" x2="3408" y1="1568" y2="1504" /><line stroke="#333" stroke-width="10" x1="3408" x2="3472" y1="1504" y2="1504" /><line stroke="#333" stroke-width="10" x1="3472" x2="3472" y1="1504" y2="1440" /><line stroke="#333" stroke-width="10" x1="3472" x2="3536" y1="1440" y2="1440" /><line stroke="#333" stroke-width="10" x1="3536" x2="3472" y1="1248" y2="1248" /><line stroke="#333" stroke-width="10" x1="3472" x2="3472" y1="1248" y2="1184" /><line stroke="#333" stroke-width="10" x1="3472" x2="3408" y1="1184" y2="1184" /><line stroke="#333" stroke-width="10" x1="3216" x2="3152" y1="1184" y2="1184" /><line stroke="#333" stroke-width="10" x1="3152" x2="3152" y1="1184" y2="1248" /><line stroke="#333" stroke-width="10" x1="3152" x2="3088" y1="1248" y2="1248" /><line stroke="#999" stroke-width="3" x1="3216" x2="3152" y1="1248" y2="1248" /><line stroke="#999" stroke-width="3" x1="3216" x2="3216" y1="1184" y2="1248" /><line stroke="#999" stroke-width="3" x1="3408" x2="3408" y1="1248" y2="1184" /><line stroke="#999" stroke-width="3" x1="3472" x2="3408" y1="1248" y2="1248" /><line stroke="#999" stroke-width="3" x1="3408" x2="3408" y1="1504" y2="1440" /><line stroke="#999" stroke-width="3" x1="3408" x2="3472" y1="1440" y2="1440" /><line stroke="#999" stroke-width="3" x1="3152" x2="3216" y1="1440" y2="1440" /><line stroke="#999" stroke-width="3" x1="3216" x2="3216" y1="1440" y2="1504" /><line stroke="#999" stroke-width="3" x1="3216" x2="3216" y1="2080" y2="2912" /><line stroke="#999" stroke-width="3" x1="3408" x2="3408" y1="2912" y2="2080" /><line stroke="#999" stroke-width="3" x1="2608" x2="2880" y1="2528" y2="3368" /><line stroke="#999" stroke-width="3" x1="2880" x2="2224" y1="3368" y2="3872" /><line stroke="#999" stroke-width="3" x1="2224" x2="3056" y1="3872" y2="3872" /><line stroke="#999" stroke-width="3" x1="3312" x2="3568" y1="4648" y2="3872" /><line stroke="#999" stroke-width="3" x1="3568" x2="4400" y1="3872" y2="3872" /><line stroke="#999" stroke-width="3" x1="4400" x2="3736" y1="3872" y2="3368" /><line stroke="#999" stroke-width="3" x1="3024" x2="3216" y1="1888" y2="2080" /><line stroke="#999" stroke-width="3" x1="3408" x2="3600" y1="2080" y2="1888" /><line stroke="#999" stroke-width="3" x1="3216" x2="3408" y1="1568" y2="1568" /><line stroke="#333" stroke-width="10" x1="3408" x2="3408" y1="1184" y2="1120" /><line stroke="#333" stroke-width="10" x1="3408" x2="3376" y1="1120" y2="1120" /><line stroke="#333" stroke-width="10" x1="3376" x2="3376" y1="1120" y2="1104" /><line stroke="#333" stroke-width="10" x1="3376" x2="3376" y1="1104" y2="1088" /><line stroke="#333" stroke-width="10" x1="3376" x2="3376" y1="1088" y2="1072" /><line stroke="#333" stroke-width="10" x1="3376" x2="3408" y1="1072" y2="1072" /><line stroke="#333" stroke-width="10" x1="3408" x2="3408" y1="1072" y2="928" /><line stroke="#333" stroke-width="10" x1="3216" x2="3216" y1="928" y2="1072" /><line stroke="#333" stroke-width="10" x1="3216" x2="3248" y1="1072" y2="1072" /><line stroke="#333" stroke-width="10" x1="3248" x2="3248" y1="1072" y2="1088" /><line stroke="#333" stroke-width="10" x1="3248" x2="3248" y1="1088" y2="1104" /><line stroke="#333" stroke-width="10" x1="3248" x2="3248" y1="1104" y2="1120" /><line stroke="#333" stroke-width="10" x1="3248" x2="3216" y1="1120" y2="1120" /><line stroke="#333" stroke-width="10" x1="3216" x2="3216" y1="1120" y2="1184" /><line stroke="#999" stroke-width="3" x1="3248" x2="3376" y1="1088" y2="1088" /><line stroke="#999" stroke-width="3" x1="3376" x2="3248" y1="1104" y2="1104" /><line stroke="#999" stroke-width="3" x1="3376" x2="3248" y1="1120" y2="1120" /><line stroke="#999" stroke-width="3" x1="3248" x2="3376" y1="1072" y2="1072" /><line stroke="#999" stroke-width="3" x1="3056" x2="3312" y1="3872" y2="4648" /><line stroke="#333" stroke-width="10" x1="3376" x2="3384" y1="896" y2="896" /><line stroke="#333" stroke-width="10" x1="3384" x2="3376" y1="832" y2="832" /><line stroke="#999" stroke-width="3" x1="3384" x2="3384" y1="832" y2="896" /><line stroke="#333" stroke-width="10" x1="3384" x2="3440" y1="896" y2="896" /><line stroke="#333" stroke-width="10" x1="3440" x2="3440" y1="896" y2="832" /><line stroke="#333" stroke-width="10" x1="3440" x2="3384" y1="832" y2="832" /><line stroke="#999" stroke-width="3" x1="3376" x2="3376" y1="864" y2="832" /><line stroke="#999" stroke-width="3" x1="2832" x2="2832" y1="288" y2="224" /><line stroke="#999" stroke-width="3" x1="2832" x2="2832" y1="352" y2="288" /><line stroke="#999" stroke-width="3" x1="2832" x2="2832" y1="224" y2="160" /><line stroke="#333" stroke-width="10" x1="2864" x2="2896" y1="352" y2="352" /><line stroke="#333" stroke-width="10" x1="2896" x2="2928" y1="352" y2="352" /><line stroke="#333" stroke-width="10" x1="2928" x2="2960" y1="352" y2="352" /><line stroke="#333" stroke-width="10" x1="2960" x2="2928" y1="160" y2="160" /><line stroke="#333" stroke-width="10" x1="2928" x2="2896" y1="160" y2="160" /><line stroke="#333" stroke-width="10" x1="2896" x2="2864" y1="160" y2="160" /><line stroke="#999" stroke-width="3" x1="2960" x2="2960" y1="160" y2="352" /><line stroke="#999" stroke-width="3" x1="2928" x2="2928" y1="160" y2="352" /><line stroke="#999" stroke-width="3" x1="2896" x2="2896" y1="160" y2="352" /><line stroke="#333" stroke-width="10" x1="2960" x2="3056" y1="1568" y2="1440" /><line stroke="#333" stroke-width="10" x1="2824" x2="2960" y1="1568" y2="1568" /><line stroke="#333" stroke-width="10" x1="2704" x2="2824" y1="1440" y2="1568" /><line stroke="#333" stroke-width="10" x1="2704" x2="2704" y1="1248" y2="1440" /><line stroke="#333" stroke-width="10" x1="2832" x2="2704" y1="1120" y2="1248" /><line stroke="#333" stroke-width="10" x1="2960" x2="2832" y1="1120" y2="1120" /><line stroke="#333" stroke-width="10" x1="3056" x2="2960" y1="1248" y2="1120" /><line stroke="#333" stroke-width="10" x1="3568" x2="3664" y1="1440" y2="1568" /><line stroke="#333" stroke-width="10" x1="3664" x2="3792" y1="1568" y2="1568" /><line stroke="#333" stroke-width="10" x1="3792" x2="3920" y1="1568" y2="1440" /><line stroke="#333" stroke-width="10" x1="3920" x2="3920" y1="1440" y2="1248" /><line stroke="#333" stroke-width="10" x1="3920" x2="3792" y1="1248" y2="1120" /><line stroke="#333" stroke-width="10" x1="3792" x2="3664" y1="1120" y2="1120" /><line stroke="#333" stroke-width="10" x1="3664" x2="3568" y1="1120" y2="1248" /><line stroke="#333" stroke-width="10" x1="3024" x2="2136" y1="1888" y2="1224" /><line stroke="#333" stroke-width="10" x1="2136" x2="0" y1="1224" y2="2272" /><line stroke="#333" stroke-width="10" x1="0" x2="1280" y1="2272" y2="6528" /><line stroke="#333" stroke-width="10" x1="1280" x2="5168" y1="6528" y2="6528" /><line stroke="#333" stroke-width="10" x1="5168" x2="6616" y1="6528" y2="2208" /><line stroke="#333" stroke-width="10" x1="6616" x2="4376" y1="2208" y2="1224" /><line stroke="#333" stroke-width="10" x1="4376" x2="3600" y1="1224" y2="1888" /><line stroke="#999" stroke-width="3" x1="3216" x2="3216" y1="2912" y2="2976" /><line stroke="#999" stroke-width="3" x1="3408" x2="3408" y1="2976" y2="2912" /><line stroke="#999" stroke-width="3" x1="3408" x2="3216" y1="2976" y2="2976" /><line stroke="#999" stroke-width="3" x1="3344" x2="3408" y1="2912" y2="2912" /><line stroke="#999" stroke-width="3" x1="4016" x2="3408" y1="2528" y2="2976" /><line stroke="#999" stroke-width="3" x1="3736" x2="4016" y1="3368" y2="2528" /><line stroke="#999" stroke-width="3" x1="3216" x2="2608" y1="2976" y2="2528" /><line stroke="#333" stroke-width="10" x1="3144" x2="3168" y1="3280" y2="3280" /><line stroke="#333" stroke-width="10" x1="3168" x2="3168" y1="3280" y2="3304" /><line stroke="#333" stroke-width="10" x1="3168" x2="3168" y1="3304" y2="3312" /><line stroke="#333" stroke-width="10" x1="3168" x2="3168" y1="3312" y2="3392" /><line stroke="#333" stroke-width="10" x1="3168" x2="3232" y1="3392" y2="3392" /><line stroke="#333" stroke-width="10" x1="3232" x2="3232" y1="3392" y2="3312" /><line stroke="#333" stroke-width="10" x1="3232" x2="3232" y1="3312" y2="3304" /><line stroke="#333" stroke-width="10" x1="3232" x2="3232" y1="3304" y2="3280" /><line stroke="#333" stroke-width="10" x1="3232" x2="3256" y1="3280" y2="3280" /><line stroke="#333" stroke-width="10" x1="3256" x2="3272" y1="3280" y2="3360" /><line stroke="#333" stroke-width="10" x1="3272" x2="3232" y1="3360" y2="3424" /><line stroke="#333" stroke-width="10" x1="3232" x2="3168" y1="3424" y2="3424" /><line stroke="#333" stroke-width="10" x1="3168" x2="3104" y1="3424" y2="3360" /><line stroke="#333" stroke-width="10" x1="3104" x2="3144" y1="3360" y2="3280" /><line stroke="#999" stroke-width="3" x1="3168" x2="3232" y1="3280" y2="3280" /><line stroke="#999" stroke-width="3" x1="3168" x2="3232" y1="3304" y2="3304" /><line stroke="#999" stroke-width="3" x1="3232" x2="3168" y1="3312" y2="3312" /><line stroke="#999" stroke-width="3" x1="3144" x2="3144" y1="3280" y2="3232" /><line stroke="#999" stroke-width="3" x1="3144" x2="3256" y1="3232" y2="3232" /><line stroke="#999" stroke-width="3" x1="3256" x2="3256" y1="3232" y2="3280" /><line stroke="#999" stroke-width="3" x1="3144" x2="3088" y1="3232" y2="3168" /><line stroke="#999" stroke-width="3" x1="3088" x2="3088" y1="3168" y2="3104" /><line stroke="#999" stroke-width="3" x1="3088" x2="3216" y1="3104" y2="2976" /><line stroke="#333" stroke-width="10" x1="3368" x2="3392" y1="3280" y2="3280" /><line stroke="#333" stroke-width="10" x1="3392" x2="3392" y1="3280" y2="3304" /><line stroke="#333" stroke-width="10" x1="3392" x2="3392" y1="3304" y2="3312" /><line stroke="#333" stroke-width="10" x1="3392" x2="3392" y1="3312" y2="3392" /><line stroke="#333" stroke-width="10" x1="3392" x2="3456" y1="3392" y2="3392" /><line stroke="#999" stroke-width="3" x1="3456" x2="3456" y1="3392" y2="3312" /><line stroke="#333" stroke-width="10" x1="3456" x2="3456" y1="3312" y2="3304" /><line stroke="#333" stroke-width="10" x1="3456" x2="3456" y1="3304" y2="3280" /><line stroke="#333" stroke-width="10" x1="3456" x2="3480" y1="3280" y2="3280" /><line stroke="#333" stroke-width="10" x1="3480" x2="3520" y1="3280" y2="3360" /><line stroke="#333" stroke-width="10" x1="3520" x2="3456" y1="3360" y2="3424" /><line stroke="#333" stroke-width="10" x1="3456" x2="3392" y1="3424" y2="3424" /><line stroke="#333" stroke-width="10" x1="3392" x2="3352" y1="3424" y2="3360" /><line stroke="#333" stroke-width="10" x1="3352" x2="3368" y1="3360" y2="3280" /><line stroke="#999" stroke-width="3" x1="3392" x2="3456" y1="3280" y2="3280" /><line stroke="#999" stroke-width="3" x1="3392" x2="3456" y1="3304" y2="3304" /><line stroke="#999" stroke-width="3" x1="3456" x2="3392" y1="3312" y2="3312" /><line stroke="#999" stroke-width="3" x1="3368" x2="3368" y1="3280" y2="3232" /><line stroke="#999" stroke-width="3" x1="3368" x2="3480" y1="3232" y2="3232" /><line stroke="#999" stroke-width="3" x1="3480" x2="3480" y1="3232" y2="3280" /><line stroke="#999" stroke-width="3" x1="3312" x2="3256" y1="3192" y2="3232" /><line stroke="#999" stroke-width="3" x1="3088" x2="3536" y1="3168" y2="3168" /><line stroke="#999" stroke-width="3" x1="3536" x2="3480" y1="3168" y2="3232" /><line stroke="#999" stroke-width="3" x1="3088" x2="3536" y1="3104" y2="3104" /><line stroke="#999" stroke-width="3" x1="3536" x2="3536" y1="3104" y2="3168" /><line stroke="#999" stroke-width="3" x1="3408" x2="3536" y1="2976" y2="3104" /><line stroke="#999" stroke-width="3" x1="3216" x2="3280" y1="2912" y2="2912" /><line stroke="#999" stroke-width="3" x1="3280" x2="3344" y1="2912" y2="2912" /><line stroke="#999" stroke-width="3" x1="3368" x2="3312" y1="3232" y2="3192" /><line stroke="#999" stroke-width="3" x1="3184" x2="3248" y1="4896" y2="4896" /><line stroke="#999" stroke-width="3" x1="3248" x2="3248" y1="4896" y2="4928" /><line stroke="#999" stroke-width="3" x1="3248" x2="3248" y1="4928" y2="4960" /><line stroke="#999" stroke-width="3" x1="3248" x2="3248" y1="4960" y2="4992" /><line stroke="#999" stroke-width="3" x1="3248" x2="3248" y1="4992" y2="5024" /><line stroke="#999" stroke-width="3" x1="3248" x2="3248" y1="5024" y2="5056" /><line stroke="#999" stroke-width="3" x1="3248" x2="3248" y1="5056" y2="5088" /><line stroke="#999" stroke-width="3" x1="3248" x2="3248" y1="5088" y2="5120" /><line stroke="#999" stroke-width="3" x1="3248" x2="3248" y1="5120" y2="5152" /><line stroke="#999" stroke-width="3" x1="3248" x2="3248" y1="5152" y2="5184" /><line stroke="#999" stroke-width="3" x1="3248" x2="3248" y1="5184" y2="5216" /><line stroke="#999" stroke-width="3" x1="3248" x2="3248" y1="5216" y2="5248" /><line stroke="#999" stroke-width="3" x1="3248" x2="3248" y1="5248" y2="5280" /><line stroke="#999" stroke-width="3" x1="3184" x2="3184" y1="5728" y2="4896" /><line stroke="#999" stroke-width="3" x1="3440" x2="3504" y1="4896" y2="4896" /><line stroke="#999" stroke-width="3" x1="3504" x2="3504" y1="4896" y2="5728" /><line stroke="#999" stroke-width="3" x1="3440" x2="3440" y1="5280" y2="5248" /><line stroke="#999" stroke-width="3" x1="3440" x2="3440" y1="5248" y2="5216" /><line stroke="#999" stroke-width="3" x1="3440" x2="3440" y1="5216" y2="5184" /><line stroke="#999" stroke-width="3" x1="3440" x2="3440" y1="5184" y2="5152" /><line stroke="#999" stroke-width="3" x1="3440" x2="3440" y1="5152" y2="5120" /><line stroke="#999" stroke-width="3" x1="3440" x2="3440" y1="5120" y2="5088" /><line stroke="#999" stroke-width="3" x1="3440" x2="3440" y1="5088" y2="5056" /><line stroke="#999" stroke-width="3" x1="3440" x2="3440" y1="5056" y2="5024" /><line stroke="#999" stroke-width="3" x1="3440" x2="3440" y1="5024" y2="4992" /><line stroke="#999" stroke-width="3" x1="3440" x2="3440" y1="4992" y2="4960" /><line stroke="#999" stroke-width="3" x1="3440" x2="3440" y1="4960" y2="4928" /><line stroke="#999" stroke-width="3" x1="3440" x2="3440" y1="4928" y2="4896" /><line stroke="#999" stroke-width="3" x1="3248" x2="3440" y1="4896" y2="4896" /><line stroke="#999" stroke-width="3" x1="3248" x2="3440" y1="4928" y2="4928" /><line stroke="#999" stroke-width="3" x1="3248" x2="3440" y1="4960" y2="4960" /><line stroke="#999" stroke-width="3" x1="3248" x2="3440" y1="4992" y2="4992" /><line stroke="#999" stroke-width="3" x1="3248" x2="3440" y1="5024" y2="5024" /><line stroke="#999" stroke-width="3" x1="3248" x2="3440" y1="5056" y2="5056" /><line stroke="#999" stroke-width="3" x1="3248" x2="3440" y1="5088" y2="5088" /><line stroke="#999" stroke-width="3" x1="3248" x2="3440" y1="5120" y2="5120" /><line stroke="#999" stroke-width="3" x1="3248" x2="3440" y1="5152" y2="5152" /><line stroke="#999" stroke-width="3" x1="3248" x2="3440" y1="5184" y2="5184" /><line stroke="#999" stroke-width="3" x1="3248" x2="3440" y1="5216" y2="5216" /><line stroke="#999" stroke-width="3" x1="3248" x2="3440" y1="5248" y2="5248" /><line stroke="#999" stroke-width="3" x1="3248" x2="3440" y1="5280" y2="5280" /><line stroke="#999" stroke-width="3" x1="3504" x2="3184" y1="5728" y2="5728" /><line stroke="#999" stroke-width="3" x1="3248" x2="3248" y1="5280" y2="5312" /><line stroke="#999" stroke-width="3" x1="3248" x2="3440" y1="5312" y2="5312" /><line stroke="#999" stroke-width="3" x1="3440" x2="3440" y1="5312" y2="5280" /><line stroke="#999" stroke-width="3" x1="3248" x2="3248" y1="5312" y2="5344" /><line stroke="#999" stroke-width="3" x1="3248" x2="3440" y1="5344" y2="5344" /><line stroke="#999" stroke-width="3" x1="3440" x2="3440" y1="5344" y2="5312" /><line stroke="#999" stroke-width="3" x1="3152" x2="3152" y1="2872" y2="2080" /><line stroke="#999" stroke-width="3" x1="3152" x2="3024" y1="2080" y2="1888" /><line stroke="#999" stroke-width="3" x1="2544" x2="3152" y1="2432" y2="2872" /><line stroke="#999" stroke-width="3" x1="2832" x2="2544" y1="3360" y2="2432" /><line stroke="#999" stroke-width="3" x1="2112" x2="2832" y1="3912" y2="3360" /><line stroke="#999" stroke-width="3" x1="3024" x2="2112" y1="3912" y2="3912" /><line stroke="#999" stroke-width="3" x1="3312" x2="3024" y1="4720" y2="3912" /><line stroke="#999" stroke-width="3" x1="3600" x2="3312" y1="3912" y2="4720" /><line stroke="#999" stroke-width="3" x1="4496" x2="3600" y1="3912" y2="3912" /><line stroke="#999" stroke-width="3" x1="3792" x2="4496" y1="3360" y2="3912" /><line stroke="#999" stroke-width="3" x1="4080" x2="3792" y1="2432" y2="3360" /><line stroke="#999" stroke-width="3" x1="3472" x2="4080" y1="2872" y2="2432" /><line stroke="#999" stroke-width="3" x1="3472" x2="3472" y1="2080" y2="2872" /><line stroke="#999" stroke-width="3" x1="3600" x2="3472" y1="1888" y2="2080" /><line stroke="#333" stroke-width="10" x1="3600" x2="3408" y1="1888" y2="1592" /><line stroke="#333" stroke-width="10" x1="3408" x2="3408" y1="1592" y2="1568" /><line stroke="#333" stroke-width="10" x1="3216" x2="3216" y1="1568" y2="1592" /><line stroke="#333" stroke-width="10" x1="3216" x2="3024" y1="1592" y2="1888" /><line stroke="#999" stroke-width="3" x1="3280" x2="3344" y1="5536" y2="5536" /><line stroke="#999" stroke-width="3" x1="3344" x2="3408" y1="5536" y2="5536" /><line stroke="#999" stroke-width="3" x1="3408" x2="3408" y1="5536" y2="5600" /><line stroke="#999" stroke-width="3" x1="3408" x2="3408" y1="5600" y2="5664" /><line stroke="#999" stroke-width="3" x1="3408" x2="3344" y1="5664" y2="5664" /><line stroke="#999" stroke-width="3" x1="3344" x2="3280" y1="5664" y2="5664" /><line stroke="#999" stroke-width="3" x1="3280" x2="3280" y1="5664" y2="5600" /><line stroke="#999" stroke-width="3" x1="3280" x2="3280" y1="5600" y2="5536" /><line stroke="#999" stroke-width="3" x1="3280" x2="3344" y1="5600" y2="5600" /><line stroke="#999" stroke-width="3" x1="3344" x2="3408" y1="5600" y2="5600" /><line stroke="#999" stroke-width="3" x1="3344" x2="3344" y1="5664" y2="5600" /><line stroke="#999" stroke-width="3" x1="3344" x2="3344" y1="5600" y2="5536" /><line stroke="#999" stroke-width="3" x1="3248" x2="3440" y1="5504" y2="5504" /><line stroke="#999" stroke-width="3" x1="3440" x2="3440" y1="5504" y2="5696" /><line stroke="#999" stroke-width="3" x1="3440" x2="3248" y1="5696" y2="5696" /><line stroke="#999" stroke-width="3" x1="3248" x2="3248" y1="5696" y2="5504" /><line stroke="#999" stroke-width="3" x1="3264" x2="3424" y1="5680" y2="5680" /><line stroke="#999" stroke-width="3" x1="3424" x2="3424" y1="5680" y2="5520" /><line stroke="#999" stroke-width="3" x1="3424" x2="3264" y1="5520" y2="5520" /><line stroke="#999" stroke-width="3" x1="3264" x2="3264" y1="5520" y2="5680" /><line stroke="#333" stroke-width="10" x1="3664" x2="3344" y1="6752" y2="6752" /><line stroke="#333" stroke-width="10" x1="3344" x2="3344" y1="6752" y2="7136" /><line stroke="#333" stroke-width="10" x1="3344" x2="3664" y1="7136" y2="7136" /><line stroke="#333" stroke-width="10" x1="3664" x2="3664" y1="7136" y2="6752" /><line stroke="#999" stroke-width="3" x1="3456" x2="3552" y1="6992" y2="6992" /><line stroke="#999" stroke-width="3" x1="3552" x2="3552" y1="6992" y2="6896" /><line stroke="#999" stroke-width="3" x1="3552" x2="3456" y1="6896" y2="6896" /><line stroke="#999" stroke-width="3" x1="3456" x2="3456" y1="6896" y2="6992" /><line stroke="#333" stroke-width="10" x1="3456" x2="3464" y1="3392" y2="3392" /><line stroke="#333" stroke-width="10" x1="3464" x2="3456" y1="3312" y2="3312" /><line stroke="#333" stroke-width="10" x1="3488" x2="3464" y1="3312" y2="3312" /><line stroke="#333" stroke-width="10" x1="3464" x2="3488" y1="3392" y2="3376" /><line stroke="#333" stroke-width="10" x1="3488" x2="3488" y1="3376" y2="3312" /><line stroke="#999" stroke-width="3" x1="3464" x2="3464" y1="3312" y2="3392" /></svg>